<?xml version="1.0" standalone="no"?>
<!DOCTYPE svg PUBLIC "-//W3C//DTD SVG 20010904//EN"
 "http://www.w3.org/TR/2001/REC-SVG-20010904/DTD/svg10.dtd">
<svg version="1.0" xmlns="http://www.w3.org/2000/svg"
 width="265.000000pt" height="211.000000pt" viewBox="0 0 265.000000 211.000000"
 preserveAspectRatio="xMidYMid meet">
<metadata>
Created by potrace 1.15, written by Peter Selinger 2001-2017
</metadata>
<g transform="translate(0.000000,211.000000) scale(0.100000,-0.100000)"
fill="#000000" stroke="none">
<path d="M1186 1618 c-241 -22 -460 -167 -570 -378 -66 -126 -81 -189 -81
-345 0 -157 15 -219 82 -348 58 -109 237 -287 290 -287 10 0 24 5 31 12 24 24
12 46 -40 79 -115 70 -214 199 -266 348 -23 66 -27 91 -26 196 0 105 4 130 28
200 33 96 61 146 126 224 128 154 333 241 539 229 201 -12 395 -123 501 -286
36 -57 52 -67 81 -52 29 16 23 42 -24 106 -160 216 -405 326 -671 302z"/>
<path d="M1092 1415 c-116 -40 -203 -103 -274 -196 -68 -90 -112 -218 -106
-307 3 -45 4 -47 33 -47 29 0 29 1 42 84 35 222 196 383 414 414 84 12 84 12
84 42 0 30 -1 30 -60 32 -43 2 -81 -4 -133 -22z"/>
<path d="M1487 1363 c-18 -17 -3 -44 42 -77 133 -98 201 -230 201 -391 0 -352
-359 -576 -679 -423 -63 30 -159 114 -208 183 -18 25 -24 28 -39 19 -33 -19
-28 -52 15 -109 79 -105 214 -183 361 -211 76 -15 91 -15 169 0 270 49 460
271 461 536 0 126 -38 236 -121 345 -72 95 -172 159 -202 128z"/>
<path d="M1167 1250 c-136 -35 -227 -128 -263 -270 -38 -148 26 -310 155 -392
25 -15 54 -28 65 -28 11 0 46 25 78 57 l58 57 58 -57 c32 -31 66 -57 76 -57
29 0 112 57 146 100 16 20 42 61 57 91 24 47 28 65 28 144 0 81 -4 97 -33 156
-60 125 -172 198 -312 205 -41 2 -92 -1 -113 -6z m214 -92 c63 -27 132 -103
154 -169 37 -109 3 -234 -84 -311 l-45 -39 -48 48 -48 47 84 86 c110 112 119
154 53 234 -20 24 -33 30 -80 34 -41 3 -63 0 -81 -12 -22 -14 -28 -14 -53 -1
-15 8 -49 15 -75 15 -58 0 -103 -34 -118 -89 -18 -66 -4 -98 84 -188 l80 -84
-45 -45 -45 -45 -49 43 c-65 57 -95 123 -95 209 0 76 12 118 51 175 75 111
227 150 360 92z m-169 -163 c15 -14 35 -25 44 -25 9 0 29 11 46 25 16 14 40
25 53 25 26 0 55 -33 55 -63 0 -10 -34 -53 -75 -95 l-74 -77 -76 75 c-56 56
-75 81 -75 102 0 57 56 76 102 33z"/>
<path d="M1927 923 c-3 -5 -8 -39 -12 -78 -18 -166 -75 -285 -195 -405 -120
-121 -242 -180 -403 -195 -81 -8 -103 -21 -92 -55 15 -47 222 -14 371 60 163
80 309 249 364 423 25 80 42 215 29 239 -10 18 -53 25 -62 11z"/>
</g>
</svg>
